<svg xmlns="http://www.w3.org/2000/svg" width="722" height="624" viewBox="0 0 722 624" version="1.1"><path d="" stroke="none" fill="#f48ccc" fill-rule="evenodd"/><path d="M 532.092 2.422 C 524.002 5.503, 514.979 11.708, 503.500 22.084 C 498.550 26.558, 488.425 35.442, 481 41.826 C 473.575 48.210, 462.409 58.107, 456.186 63.819 C 445.345 73.770, 444.718 74.182, 441.186 73.682 C 439.159 73.395, 432.492 72.597, 426.372 71.908 C 389.740 67.789, 326.308 82.835, 277.637 107.190 C 243.844 124.099, 214.886 145.741, 197.257 167.261 C 194.517 170.606, 193.584 170.625, 181.839 167.573 C 173.783 165.479, 165.171 164.248, 147.500 162.664 C 141.260 162.105, 111.767 163.828, 98.663 165.517 C 74.458 168.638, 49.216 175.226, 33 182.654 C 24.386 186.600, 10 195.754, 10 197.289 C 10 197.859, 13.938 202.196, 18.750 206.927 C 28.156 216.173, 57.315 236.368, 74.500 245.540 C 88.396 252.955, 87.847 252.107, 81.482 256.324 C 78.456 258.329, 73.428 261.662, 70.310 263.731 C 40.896 283.241, 19.445 311.438, 8.100 345.500 C 3.965 357.915, 0.846 376.108, 1.207 385.707 L 1.500 393.500 5.691 393.805 C 10.637 394.164, 46.667 386.991, 74.398 380.125 C 85.179 377.456, 94 375.582, 94 375.961 C 94 376.340, 92.859 379.991, 91.464 384.075 C 84.838 403.477, 80.811 425.755, 78.464 456 C 76.639 479.531, 76.643 488.509, 78.486 504.006 C 81.032 525.417, 82.453 528.037, 89.045 523.469 C 94.169 519.918, 103.095 510.377, 113.287 497.558 C 124.231 483.793, 137.107 469, 138.144 469 C 138.615 469, 139 470.363, 139 472.029 C 139 476.847, 147.612 501.578, 152.470 510.710 C 162.269 529.130, 177.722 549.290, 190.682 560.559 C 210.044 577.396, 236.827 596.283, 246.535 599.946 C 253.226 602.470, 259.619 602.810, 261.679 600.750 C 263.657 598.772, 264.995 588.961, 265.320 574.054 C 265.476 566.909, 265.891 560.776, 266.243 560.424 C 266.595 560.072, 269.581 561.423, 272.878 563.426 C 281.879 568.894, 290.202 572.395, 303.500 576.308 C 331.251 584.475, 351.620 587.892, 377 588.640 C 414.219 589.737, 437.874 585.148, 472 570.209 C 483.428 565.207, 493.969 561.001, 495.082 561.001 C 495.402 561, 494.399 566.738, 492.853 573.750 C 489.486 589.023, 487.743 604.591, 488.180 615.500 L 488.500 623.500 491.547 623.798 C 499.418 624.569, 538.846 599.319, 567 575.478 C 583.197 561.762, 618.305 523.496, 632.948 503.597 L 639.500 494.694 639.743 501.597 C 640.082 511.213, 643.063 538.028, 644.096 540.750 C 645.913 545.535, 648.615 543.490, 656.785 531.141 C 669.172 512.421, 683.761 482.766, 692.033 459.500 C 695.269 450.395, 708.784 404.755, 711.992 392.094 C 717.633 369.832, 721.548 329.523, 720.767 301.731 C 720.242 283.034, 718.367 273.282, 711.938 255.817 C 707.089 242.645, 693.389 217.569, 684.175 205 C 665.409 179.400, 660.067 172.979, 643.531 156.142 C 623.341 135.585, 611.958 125.974, 594.797 114.990 C 588.360 110.871, 582.857 106.923, 582.566 106.219 C 582.276 105.514, 581.561 100.789, 580.977 95.719 C 577.860 68.665, 574.522 48.687, 571.371 38.220 C 566.902 23.377, 560.231 9.547, 555.173 4.643 C 551.560 1.138, 550.615 0.749, 544.848 0.383 C 539.849 0.066, 537.139 0.499, 532.092 2.422 M 413.500 259.524 C 395.277 263.543, 378.889 272.417, 361.937 287.446 C 338.548 308.182, 330.949 322.964, 320.009 369 C 313.827 395.013, 306.116 413.087, 294.785 428.125 C 281.974 445.126, 268.681 449.703, 257.714 440.890 C 255.045 438.746, 253.867 438.212, 254.302 439.344 C 255.007 441.182, 258.404 460.974, 259.520 469.750 C 259.887 472.637, 260.300 475, 260.437 475 C 260.575 475, 263.345 474.048, 266.593 472.884 C 275.145 469.820, 290.673 470.065, 306.582 473.515 C 352.174 483.401, 360.095 484.717, 381 485.876 C 406.250 487.276, 417.556 487.308, 420.023 485.987 C 421.828 485.022, 421.784 484.779, 419.066 480.737 C 402.676 456.358, 392.713 413.840, 396.032 382.427 C 398.563 358.461, 402.397 350.142, 411.713 348.394 C 419.660 346.903, 426.040 353.695, 436.746 375.045 C 443.023 387.563, 446.311 397.802, 449.579 415 C 451.782 426.592, 452.673 461.114, 450.977 469.111 C 450.283 472.377, 449.986 475.320, 450.317 475.650 C 451.268 476.601, 458.874 473.240, 466.565 468.470 C 477.791 461.508, 488.478 448.564, 498.327 430 C 513.102 402.152, 519.251 365.630, 514.070 336.500 C 511.305 320.959, 510.922 319.829, 503.322 304.797 C 491.385 281.187, 473.293 265.574, 451.377 259.968 C 442.263 257.637, 423.075 257.412, 413.500 259.524 M 200.964 408.077 C 193.559 413.619, 185.992 419.581, 184.149 421.327 L 180.798 424.500 181.418 432.196 C 182.318 443.373, 186.057 456.927, 191.740 469.619 C 205.436 500.203, 222.130 512.897, 236.867 503.934 C 238.627 502.864, 240.313 501.348, 240.613 500.566 C 240.914 499.783, 238.166 494.498, 234.507 488.821 C 221.007 467.875, 215.932 453.734, 213.342 429.855 C 211.943 416.952, 211.924 414.186, 213.177 406.605 C 213.960 401.872, 214.562 398, 214.515 398 C 214.468 398, 208.370 402.534, 200.964 408.077" stroke="none" fill="#f494cc" fill-rule="evenodd"/></svg>