<svg xmlns="http://www.w3.org/2000/svg" width="835" height="738" viewBox="0 0 835 738" version="1.1"><path d="" stroke="none" fill="#d00c0c" fill-rule="evenodd"/><path d="M 325 70.509 C 287.154 74.803, 258.442 83.113, 238.139 95.647 C 220.425 106.584, 191.441 140.107, 158.292 188 C 137.069 218.662, 114.973 258.751, 101.207 291.570 C 92.789 311.641, 91.750 327.901, 97.059 356.500 C 101.175 378.672, 101.205 383.496, 97.287 392.500 C 88.905 411.764, 87.462 422.411, 92.002 431.500 C 94.711 436.923, 99.133 439.802, 106.219 440.755 L 109.938 441.255 105.879 445.877 C 103.647 448.420, 98.180 455, 93.732 460.500 C 87.856 467.764, 85.076 470.457, 83.572 470.345 C 68.070 469.182, 63.938 469.131, 58.279 470.035 C 41.269 472.753, 35.315 479.679, 43.677 487.022 C 50.147 492.702, 63.504 496.807, 78.500 497.724 C 86.831 498.233, 88.281 498.663, 98 503.510 C 113.625 511.302, 126.140 515.631, 142.709 518.974 C 162.843 523.036, 181.527 525.105, 199.500 525.263 C 212.689 525.378, 215.944 525.057, 226.460 522.600 C 239.892 519.462, 249.754 516.130, 258.250 511.861 L 264 508.971 263.997 512.736 C 263.986 525.741, 246.991 599.709, 236.032 634.450 C 232.782 644.753, 231.344 650.744, 231.970 651.370 C 236.717 656.117, 291.139 620.016, 314.574 596.576 C 326.297 584.850, 348.104 556.334, 359.805 537.427 C 371.484 518.558, 380.804 495.402, 382.874 480.113 C 383.424 476.050, 384.278 472.322, 384.771 471.829 C 385.301 471.299, 386.575 474.942, 387.881 480.716 C 392.696 502.014, 395.022 517.477, 396.677 539.219 C 398.151 558.563, 398.232 564.208, 397.224 577.219 C 394.678 610.101, 382.975 665.140, 371.026 700.438 C 367.292 711.467, 367.168 713.386, 370.250 712.454 C 380.331 709.405, 417.200 681.164, 447.780 653.068 C 466.496 635.872, 489.717 609.991, 498.533 596.500 C 514.295 572.380, 529.021 532.413, 533.651 501.188 C 535.728 487.182, 535.686 453.898, 533.564 432 C 532.685 422.925, 531.696 414.600, 531.368 413.500 C 530.428 410.355, 536.944 416.941, 546.703 429 C 570.476 458.375, 592.944 499.759, 604.794 536 C 619.811 581.928, 628.513 625.738, 630.577 665.801 C 631.292 679.688, 632.651 683.839, 636.055 682.533 C 638.451 681.613, 649.366 664.657, 655.387 652.500 C 662.234 638.677, 673.489 609.260, 676.012 598.595 C 679.802 582.573, 684.996 554.201, 686.921 539 C 692.316 496.410, 692.121 443.146, 686.401 397 C 679.396 340.481, 660.178 292.053, 631.556 258.793 L 624.924 251.085 630.212 251.604 C 650.632 253.609, 677.809 259.753, 698.500 267.042 C 709.449 270.900, 726.534 279.095, 738 285.992 C 755.745 296.664, 782.188 318.184, 804.684 340.261 C 811.935 347.377, 818.347 352.903, 818.934 352.541 C 822.858 350.116, 815.074 325.669, 803.788 304.973 C 795.759 290.248, 775.023 262.480, 755.733 240.618 C 728.466 209.716, 684.203 169.373, 645.899 140.511 C 584.625 94.340, 543.392 79.664, 450.500 70.965 C 430.973 69.136, 340.013 68.806, 325 70.509 M 188.360 267.285 C 185.314 269.015, 179.228 277.019, 168.561 293.328 C 150.106 321.541, 139.871 341.113, 136.384 354.857 L 133.978 364.341 141.855 372.421 C 156.978 387.934, 168.644 410.367, 170.867 428.210 L 171.500 433.289 179.773 427.053 C 190.243 419.160, 205.301 404.240, 211.347 395.767 C 221.431 381.635, 225.940 366.429, 226.716 343.934 C 227.183 330.387, 226.980 327.210, 225.150 319.434 C 220.055 297.787, 210.558 275.543, 203.806 269.443 C 200.569 266.519, 199.279 266.005, 195.247 266.035 C 192.636 266.055, 189.537 266.617, 188.360 267.285 M 129.145 392.760 C 128.553 398.117, 127.800 406.583, 127.473 411.573 C 126.830 421.376, 128.571 441.718, 130.226 443.750 C 131.960 445.878, 139.795 445.137, 149.324 441.945 C 154.340 440.264, 158.610 438.724, 158.812 438.521 C 159.015 438.319, 157.384 435.756, 155.187 432.827 C 147.066 421.993, 132.029 391.171, 132.005 385.309 C 132.002 384.654, 131.600 383.871, 131.111 383.569 C 130.623 383.267, 129.738 387.403, 129.145 392.760" stroke="none" fill="#cc0c0c" fill-rule="evenodd"/></svg>