<svg xmlns="http://www.w3.org/2000/svg" width="1280" height="1024" viewBox="0 0 1280 1024" version="1.1"><path d="M 782.500 484.370 C 768.030 488.202, 753.430 495.687, 737.616 507.382 C 703.328 532.739, 683.616 567.604, 676.384 615.683 C 674.046 631.225, 674.987 679.467, 677.874 692.077 C 681.822 709.325, 692.187 732.008, 704.659 750.698 C 710.402 759.303, 714.562 764.119, 722.627 771.499 C 734.462 782.330, 739.222 785.602, 753.500 792.724 C 786.961 809.417, 830.401 821.115, 880.500 826.926 C 899.748 829.158, 931.008 831.326, 931.847 830.486 C 932.968 829.365, 933.135 781.472, 932.149 744 C 930.973 699.331, 930.163 693.178, 921.507 663.203 C 912.335 631.439, 908.470 621.468, 891.586 586 C 873.386 547.770, 867.603 538.412, 846.240 512.626 C 833.935 497.773, 825.983 490.730, 816 485.841 C 806.986 481.428, 795.515 480.924, 782.500 484.370 M 830.367 603.505 C 819.922 608.666, 811.483 618.362, 799.973 638.423 C 783.636 666.897, 761.272 721.759, 760.722 734.711 C 760.531 739.207, 763.085 746.938, 764.797 747.044 C 765.184 747.068, 767.525 747.489, 770 747.981 C 775.779 749.129, 784.763 747.157, 793.250 742.877 C 809.607 734.630, 835.981 701.558, 847.779 674.500 C 856.492 654.517, 861.196 636.680, 861.175 623.697 C 861.164 616.492, 860.739 614.052, 858.831 610.249 C 855.338 603.288, 852.337 601.560, 843.182 601.239 C 836.640 601.009, 834.738 601.346, 830.367 603.505" stroke="none" fill="#ffffff" fill-rule="evenodd"/><path d="M 412 40.068 C 387.410 41.620, 353.924 46.467, 341.123 50.328 L 336.745 51.648 344.623 54.574 C 363.759 61.682, 388.875 76.440, 405.195 90.167 C 419.934 102.564, 464.039 146.588, 474.268 159.115 C 507.044 199.250, 527.519 240.581, 536.477 284.695 C 537.848 291.446, 539.440 296.582, 540.484 297.626 C 543.396 300.539, 541.761 305.950, 532.119 325.316 C 520.895 347.859, 514.241 356.935, 494.850 376.153 C 472.675 398.131, 453.900 412.380, 421 432.202 C 396.104 447.202, 392.155 448.456, 370 448.401 C 355.807 448.366, 353.792 448.129, 346.103 445.591 C 341.485 444.067, 331.900 440.161, 324.804 436.910 C 317.707 433.660, 311.635 431, 311.309 431 C 310.983 431, 303.017 427.118, 293.608 422.374 C 223.876 387.215, 179.976 353.123, 146.780 308.350 C 121.280 273.955, 109.547 242.899, 106.414 201.500 L 105.733 192.500 102.839 201 C 96.718 218.981, 89.163 253.598, 85.488 280.500 C 82.960 299.003, 82.438 335.207, 84.429 353.920 C 89.719 403.652, 105.393 447.906, 134.041 494 C 151.926 522.776, 170.877 544.715, 194 563.412 C 213.522 579.197, 271.240 615.191, 305.661 633.046 L 317.823 639.354 328.661 639.147 C 346.895 638.800, 362.548 636.267, 376.803 631.358 C 385.934 628.213, 387.528 628.968, 386.493 635.943 C 384.041 652.460, 366.317 682.592, 348.500 700.532 C 337.735 711.372, 330.808 716.742, 317.613 724.480 C 297.606 736.212, 280.236 740.093, 248 740.033 C 219.769 739.980, 199.789 735.999, 180.500 726.582 C 159.432 716.297, 145.767 704.893, 101.983 661.056 C 72.094 631.129, 51.027 607.872, 33.542 585.500 L 25.727 575.500 26.436 581.500 C 26.826 584.800, 28.215 592.225, 29.522 598 C 30.829 603.775, 33.709 620.115, 35.922 634.311 C 40.082 660.997, 44.371 679.868, 50.397 698 C 54.830 711.340, 69.846 741.075, 79.119 754.878 C 100.560 786.792, 141.495 831.160, 183.543 868.059 C 258.940 934.223, 339.589 961.348, 428.415 950.418 C 465.451 945.860, 508.449 933.442, 556.835 913.330 L 570.171 907.787 581.335 913.027 C 612.461 927.634, 650.908 939.858, 680 944.396 C 699.471 947.434, 708.458 949.242, 718 952.043 C 741.784 959.024, 775.437 963.174, 819.500 964.560 C 853.365 965.626, 869.155 964.164, 897 957.383 C 922.063 951.279, 940.335 944.922, 949.445 939.134 C 952.775 937.019, 957.075 934.694, 959 933.969 C 963.857 932.140, 967.144 929.748, 977.340 920.625 C 982.201 916.275, 988.488 909.394, 991.311 905.334 L 996.442 897.953 998.971 902.803 C 1002.429 909.436, 1016.045 926.759, 1020.996 930.825 C 1023.223 932.655, 1028.973 936.030, 1033.773 938.325 L 1042.500 942.500 1057 942.500 C 1070.189 942.500, 1072.248 942.249, 1079.769 939.729 C 1091.300 935.865, 1097.276 931.930, 1101.673 925.306 C 1104.543 920.982, 1105.333 918.808, 1105.333 915.240 C 1105.333 908.931, 1102.835 907.003, 1094.639 906.990 C 1084.500 906.974, 1062.899 904.209, 1055.465 901.975 C 1030.254 894.397, 1020.210 890.422, 1013 885.164 C 1007.765 881.347, 1003 875.886, 1003 873.704 C 1003 870.363, 998.083 862.595, 994.485 860.251 C 992.586 859.015, 987.762 857.100, 983.766 855.997 C 971.023 852.479, 961.541 848.573, 961.179 846.693 C 960.977 845.641, 963.193 842.494, 966.790 838.727 C 970.059 835.302, 975.568 829.125, 979.031 825 C 982.493 820.875, 990.540 812.309, 996.913 805.964 C 1009.549 793.383, 1018.205 782.685, 1027.631 768 C 1030.984 762.775, 1036.628 754, 1040.172 748.500 C 1043.716 743, 1049.198 733.934, 1052.355 728.353 L 1058.094 718.206 1057.095 711.853 C 1056.546 708.359, 1055.606 698.975, 1055.006 691 C 1053.804 675.017, 1047.968 632.613, 1045.029 618.500 C 1043.998 613.550, 1040.605 602.300, 1037.490 593.500 C 1027.447 565.128, 1024 554.640, 1024 552.450 C 1024 545.998, 1046.047 509.418, 1071.584 473.500 C 1076.276 466.900, 1082.412 457.675, 1085.219 453 C 1088.027 448.325, 1091.783 442.473, 1093.567 439.995 C 1095.351 437.517, 1100.852 426.492, 1105.791 415.495 C 1110.730 404.498, 1119.743 384.857, 1125.821 371.849 C 1141.736 337.788, 1144.409 331.214, 1153.205 304.500 C 1166.631 263.720, 1171.567 244.715, 1174.458 222.659 C 1175.995 210.939, 1176.332 193.954, 1175.132 188.774 L 1174.500 186.048 1163 189.929 C 1115.509 205.957, 1040.773 247.591, 976 294.104 C 959.295 306.100, 943.027 319.499, 920.882 339.500 C 914.184 345.550, 908.370 350.500, 907.961 350.500 C 907.553 350.500, 903.948 346, 899.950 340.500 C 863.831 290.806, 837.084 255.371, 821.072 236 C 782.767 189.661, 737.208 148.083, 696.500 122.316 C 663.919 101.692, 620.085 81.171, 582.997 69.176 C 555.796 60.380, 515.999 50.068, 489.559 44.965 C 464.135 40.059, 438.143 38.418, 412 40.068 M 723.216 411.980 C 716.129 415.023, 707.632 425.301, 696.025 444.866 C 678.428 474.530, 660.177 526.383, 653.995 564.279 C 647.291 605.370, 653.143 642.289, 671.095 672.157 C 674.659 678.088, 675.811 680.906, 675.377 682.634 C 674.434 686.391, 677.801 698.332, 684.184 713.869 C 691.577 731.866, 693.457 735.564, 701.662 748.258 C 715.842 770.195, 729.089 781.584, 756.211 795.150 C 771.002 802.549, 800.237 812.462, 828.074 819.519 C 848.317 824.650, 887.077 829.661, 922.093 831.674 L 932.686 832.283 933.343 825.995 C 934.268 817.143, 934.078 760.371, 933.021 730 C 932.003 700.735, 930.229 688.436, 924.149 668.500 C 921.969 661.350, 919.394 652.575, 918.428 649 C 914.071 632.880, 901.209 602.476, 885.220 570.500 C 871.973 544.009, 865.770 534.583, 846.298 511.357 C 836.142 499.244, 830.534 493.705, 824.134 489.470 C 821.860 487.965, 820 486.174, 820 485.488 C 820 483.852, 796.136 455.928, 785.129 444.685 C 774.393 433.718, 760.823 423.316, 751 418.523 C 746.875 416.510, 742.280 414.204, 740.788 413.398 C 737.400 411.566, 726.269 410.668, 723.216 411.980 M 834.423 602.771 C 819.548 608.059, 808.384 622.125, 790.985 657.500 C 777.862 684.182, 766.553 712.280, 762.735 727.688 C 760.958 734.855, 760.864 736.443, 761.977 740.419 C 763.756 746.771, 765.004 747.496, 774.034 747.420 C 781.009 747.362, 782.650 746.937, 790.550 743.147 C 797.646 739.742, 801.023 737.274, 808.240 730.219 C 828.622 710.296, 844.517 684.552, 854.088 655.965 C 863.414 628.108, 862.682 609.024, 852.078 603.540 C 847.325 601.083, 840.062 600.766, 834.423 602.771" stroke="none" fill="#000000" fill-rule="evenodd"/><path d="M 476 15.685 C 427.192 18.482, 364.829 31.653, 336.033 45.245 L 327.500 49.273 330.866 50.314 C 333.602 51.161, 336.313 50.849, 345.366 48.646 C 377.670 40.786, 426.364 37.100, 459 40.045 C 494.602 43.257, 559.631 59.190, 602.111 75.108 C 674.041 102.061, 724.544 134.716, 780.576 190.500 C 812.715 222.497, 834.199 248.911, 885.499 319.500 C 897.491 336, 907.444 349.672, 907.617 349.883 C 908.009 350.359, 911.829 347.058, 929.225 331.211 C 947.571 314.499, 976.797 291.526, 993.303 280.842 C 995.707 279.287, 958.733 236.053, 929 205.653 C 871.089 146.441, 813.855 103.530, 754.800 75.044 C 685.238 41.492, 611.616 21.121, 541.500 16.025 C 528.811 15.103, 489.697 14.900, 476 15.685 M 120.563 163.197 C 116.074 168.442, 113.282 173.370, 109.080 183.462 L 105.840 191.246 107.501 206.373 C 108.415 214.693, 110.071 225.972, 111.181 231.439 C 121.525 282.389, 162.638 337.729, 220.559 378.665 C 253.545 401.978, 311.154 432.451, 344.500 444.226 C 353.247 447.315, 353.964 447.403, 370 447.362 C 385.049 447.323, 387.230 447.086, 394.799 444.661 C 407.943 440.449, 448.333 415.323, 470.163 397.778 C 492.748 379.626, 516.604 353.303, 526.398 335.728 C 532.786 324.264, 541 304.952, 541 301.396 C 541 296.468, 538.953 296.052, 522.500 297.632 C 514.800 298.372, 494.775 300.323, 478 301.969 C 461.225 303.614, 439.625 305.475, 430 306.104 C 408.094 307.537, 365.329 306.713, 351.196 304.585 C 316.978 299.434, 278.740 286.440, 243 267.818 C 198.113 244.430, 152.582 203.708, 130.697 167.376 C 125.244 158.324, 124.868 158.168, 120.563 163.197 M 719.905 414.845 C 713.325 419.018, 699.014 439.214, 690.035 457 C 670.949 494.803, 654.501 550.056, 652.133 584.320 C 650.110 613.597, 655.161 639.683, 667.563 664.003 C 676.072 680.691, 675.553 681.495, 675.149 652.272 C 674.761 624.226, 675.696 614.223, 680.527 594.697 C 691.149 551.768, 714.848 519.823, 752.814 497.259 C 763.998 490.612, 772.255 487.074, 782.867 484.382 C 796.661 480.883, 805.357 481.160, 815.250 485.414 C 818.494 486.809, 819 486.828, 819 485.551 C 819 483.466, 789.047 449.132, 778.662 439.315 C 768.131 429.359, 756.344 421.372, 744.278 416.016 C 732.714 410.884, 726.614 410.590, 719.905 414.845 M 1078.720 463.891 C 1072.242 473.576, 1062.416 488.025, 1056.886 496 C 1045.378 512.595, 1039.972 521.485, 1030.486 539.415 L 1023.761 552.126 1029.976 569.813 C 1033.394 579.541, 1037.939 592.450, 1040.076 598.500 C 1044.960 612.322, 1047.041 622.296, 1051.450 653.011 C 1054.208 672.226, 1058 708.864, 1058 716.301 C 1058 718.147, 1060.746 713.694, 1062.557 708.912 C 1066.043 699.709, 1071.316 687.385, 1073.003 684.500 C 1073.968 682.850, 1075.321 679.700, 1076.009 677.500 C 1076.697 675.300, 1078.525 670.764, 1080.070 667.420 C 1083.177 660.697, 1088.106 644.792, 1089.963 635.500 C 1090.622 632.200, 1092.455 625, 1094.036 619.500 C 1096.927 609.440, 1099.106 596.169, 1100.963 577.305 C 1101.515 571.697, 1102.480 564.947, 1103.107 562.305 C 1105.612 551.745, 1104.572 511.731, 1101.449 498.540 C 1100.662 495.218, 1098.885 485.283, 1097.500 476.462 C 1095.393 463.055, 1091.878 447.379, 1090.782 446.506 C 1090.627 446.383, 1085.199 454.206, 1078.720 463.891 M 25.006 565.750 C 25.009 567.813, 25.467 571.075, 26.024 573 C 27.132 576.828, 40.131 593.405, 59.744 616 C 75.273 633.891, 132.910 691.617, 146.500 702.891 C 180.059 730.731, 205.111 739.441, 251.500 739.396 C 287.530 739.361, 306.918 733.106, 333.649 712.890 C 352.543 698.601, 370.450 675.271, 380.769 651.500 C 385.506 640.588, 387.339 631.945, 385.196 630.621 C 384.753 630.347, 380.388 631.469, 375.495 633.113 C 365.123 636.598, 346.462 639.997, 337.651 640.006 C 334.268 640.010, 324.300 640.875, 315.500 641.930 C 306.700 642.985, 291.205 644.391, 281.066 645.054 C 257.626 646.587, 209.030 645.763, 193 643.560 C 140.629 636.362, 93.564 620.524, 61.725 599.384 C 48.081 590.324, 32.975 575.454, 29.551 567.712 C 26.631 561.109, 24.998 560.404, 25.006 565.750 M 932.382 748.500 C 932.384 755.100, 932.546 757.670, 932.741 754.211 C 932.937 750.752, 932.936 745.352, 932.738 742.211 C 932.540 739.070, 932.380 741.900, 932.382 748.500" stroke="none" fill="#fb4d59" fill-rule="evenodd"/><path d="M 413.280 39.736 C 415.909 39.943, 419.959 39.940, 422.280 39.731 C 424.601 39.521, 422.450 39.352, 417.500 39.355 C 412.550 39.358, 410.651 39.530, 413.280 39.736 M 584.424 69.567 C 588.232 70.898, 591.520 71.814, 591.730 71.604 C 592.191 71.142, 580.054 66.969, 578.556 67.074 C 577.975 67.115, 580.616 68.237, 584.424 69.567 M 642.083 92.386 C 643.100 93.329, 667 104.963, 667 104.515 C 667 103.963, 643.438 92, 642.349 92 C 641.974 92, 641.854 92.174, 642.083 92.386 M 686.500 115.706 C 688.132 117.257, 707 129.033, 707 128.501 C 707 128.232, 703.227 125.578, 698.616 122.603 C 689.918 116.992, 684.770 114.061, 686.500 115.706 M 708 129.348 C 708 129.610, 711.038 131.992, 714.750 134.641 C 744.482 155.855, 784.276 192.804, 810.510 223.555 C 828.816 245.014, 831.704 248.223, 824.859 239.500 C 807.011 216.756, 774.263 182.544, 752 163.383 C 734.615 148.420, 708 127.833, 708 129.348 M 837.264 256.250 C 843.728 264.542, 863.911 291.340, 873.818 304.784 C 876.743 308.753, 879.385 312, 879.690 312 C 879.995 312, 879.801 311.438, 879.258 310.750 C 878.716 310.063, 873.639 303.200, 867.976 295.500 C 854.297 276.898, 832.020 248, 831.360 248 C 831.071 248, 833.728 251.713, 837.264 256.250 M 983.143 287.940 C 980.196 290.071, 977.271 292.385, 976.643 293.081 C 975.388 294.471, 985.608 287.477, 987.964 285.333 C 990.644 282.894, 988.563 284.019, 983.143 287.940 M 136.457 293.500 C 139.345 298.251, 147.053 309, 147.573 309 C 147.833 309, 145.484 305.288, 142.353 300.750 C 136.417 292.147, 133.317 288.334, 136.457 293.500 M 894.926 333.750 C 897.156 336.913, 900.160 340.850, 901.601 342.500 L 904.221 345.500 901.770 342 C 895.049 332.404, 891.769 328, 891.342 328 C 891.084 328, 892.697 330.587, 894.926 333.750 M 175.500 342 C 179.874 346.400, 183.678 350, 183.953 350 C 184.228 350, 180.874 346.400, 176.500 342 C 172.126 337.600, 168.322 334, 168.047 334 C 167.772 334, 171.126 337.600, 175.500 342 M 516.208 350.976 C 512.197 356.459, 504.157 366.020, 498.341 372.222 L 487.767 383.500 498.634 372.448 C 508.408 362.506, 517.702 351.326, 522.492 343.750 C 526.046 338.128, 523.280 341.308, 516.208 350.976 M 482.437 387.102 C 480.822 388.808, 475 393.811, 469.500 398.220 C 458.568 406.983, 455.241 410.016, 461.500 405.511 C 470.792 398.823, 487.589 384, 485.874 384 C 485.599 384, 484.052 385.396, 482.437 387.102 M 441.552 418.114 C 426.463 428.157, 422.154 431.327, 429.500 426.981 C 435.958 423.160, 457 409.004, 457 408.480 C 457 407.795, 457.854 407.263, 441.552 418.114 M 708.741 425.441 C 702.471 433.921, 698.530 440, 699.302 440 C 699.530 440, 701.426 437.413, 703.515 434.250 C 705.603 431.087, 709.293 425.913, 711.715 422.750 C 714.136 419.587, 715.861 417, 715.549 417 C 715.237 417, 712.173 420.798, 708.741 425.441 M 418.227 432.892 C 410.321 437.707, 408.811 439.239, 415.751 435.403 C 420.827 432.597, 426.025 429.031, 425 429.058 C 424.725 429.065, 421.677 430.790, 418.227 432.892 M 784.005 444.442 C 789.232 449.974, 796.362 457.650, 799.848 461.500 L 806.186 468.500 800.850 462 C 797.915 458.425, 790.786 450.749, 785.007 444.942 L 774.500 434.384 784.005 444.442 M 1092.244 441.750 C 1089.091 446.332, 1085.808 452, 1086.307 452 C 1086.565 452, 1088.611 449.075, 1090.852 445.500 C 1094.913 439.023, 1095.841 436.522, 1092.244 441.750 M 393.500 445.067 C 389.391 446.639, 389.124 446.871, 392 446.372 C 396.005 445.677, 402.259 443.165, 400 443.159 C 399.175 443.157, 396.250 444.016, 393.500 445.067 M 357 448.176 C 362.907 449.063, 378.312 449.041, 384 448.136 C 386.651 447.715, 381.104 447.437, 370.500 447.461 C 360.320 447.483, 354.455 447.794, 357 448.176 M 811.372 475.296 C 814.602 478.983, 817.459 482, 817.721 482 C 818.383 482, 808.060 470.153, 806.647 469.291 C 806.016 468.907, 808.142 471.609, 811.372 475.296 M 826 491.146 C 826.825 491.965, 830.650 495.519, 834.500 499.043 C 839.864 503.954, 840.448 504.328, 837 500.644 C 834.525 497.999, 830.700 494.445, 828.500 492.746 C 826.300 491.047, 825.175 490.327, 826 491.146 M 1053.205 499.750 C 1046.698 509.487, 1045.156 512.043, 1046.720 510.500 C 1048.312 508.929, 1060.110 491, 1059.552 491 C 1059.277 491, 1056.420 494.938, 1053.205 499.750 M 888.097 577.500 C 888.097 578.050, 889.628 581.425, 891.500 585 C 893.372 588.575, 894.903 591.050, 894.903 590.500 C 894.903 589.950, 893.372 586.575, 891.500 583 C 889.628 579.425, 888.097 576.950, 888.097 577.500 M 1038.579 596.250 C 1040.498 602.301, 1042.862 608.386, 1042.927 607.444 C 1043.027 606, 1038.933 594, 1038.341 594 C 1038.079 594, 1038.186 595.013, 1038.579 596.250 M 64.796 622.750 C 68.097 626.462, 72.058 630.625, 73.598 632 C 75.138 633.375, 72.627 630.337, 68.017 625.250 C 63.408 620.163, 59.447 616, 59.216 616 C 58.984 616, 61.495 619.038, 64.796 622.750 M 379.032 630.582 C 368.719 635.056, 346.320 638.952, 330.750 638.982 C 325.085 638.992, 321 639.409, 321 639.977 C 321 641.396, 341.264 640.209, 355.025 637.983 C 361.363 636.958, 370.564 634.770, 375.470 633.121 C 380.377 631.473, 384.753 630.347, 385.196 630.621 C 385.638 630.894, 386.061 632.329, 386.136 633.809 C 386.259 636.245, 386.314 636.282, 386.713 634.195 C 387.179 631.754, 385.515 628.974, 383.628 629.039 C 383.007 629.061, 380.940 629.755, 379.032 630.582 M 103 662.500 C 117.017 676.525, 128.710 688, 128.985 688 C 129.260 688, 118.017 676.525, 104 662.500 C 89.983 648.475, 78.290 637, 78.015 637 C 77.740 637, 88.983 648.475, 103 662.500 M 663 656.358 C 663 657.445, 669.967 671, 670.525 671 C 670.800 671, 669.392 667.737, 667.395 663.750 C 663.650 656.269, 663 655.176, 663 656.358 M 1054.220 678 C 1054.197 679.925, 1054.787 687.800, 1055.532 695.500 L 1056.887 709.500 1056.362 698 C 1055.814 685.986, 1054.295 671.803, 1054.220 678 M 360.573 685.532 C 357.455 689.675, 351.908 696.312, 348.246 700.282 C 343.902 704.992, 343.248 705.936, 346.364 703 C 352.413 697.299, 368.143 678, 366.740 678 C 366.466 678, 363.691 681.389, 360.573 685.532 M 675.084 683.833 C 674.982 686.679, 678.787 701.879, 680.129 703.983 C 680.818 705.065, 680.887 704.783, 680.369 703 C 679.969 701.625, 678.635 696.225, 677.405 691 C 676.174 685.775, 675.130 682.550, 675.084 683.833 M 149.571 706.115 C 150.424 707.495, 165.648 718.783, 168.391 720.069 C 169.914 720.783, 169.807 720.564, 168.004 719.279 C 166.631 718.300, 161.774 714.699, 157.211 711.277 C 152.648 707.854, 149.210 705.531, 149.571 706.115 M 334.979 711.814 C 332.492 713.841, 329.117 716.546, 327.479 717.824 C 325.841 719.102, 325.175 719.811, 326 719.398 C 329.606 717.593, 341.695 707.672, 339.809 708.064 C 339.639 708.100, 337.466 709.787, 334.979 711.814 M 932.389 724.500 C 932.390 731.650, 932.550 734.444, 932.742 730.708 C 932.935 726.973, 932.934 721.123, 932.739 717.708 C 932.545 714.294, 932.387 717.350, 932.389 724.500 M 808 730.500 C 803.903 734.625, 800.775 738, 801.050 738 C 801.325 738, 804.903 734.625, 809 730.500 C 813.097 726.375, 816.225 723, 815.950 723 C 815.675 723, 812.097 726.375, 808 730.500 M 689 725.358 C 689 726.485, 695.701 739.329, 697.421 741.500 C 698.293 742.600, 696.906 739.450, 694.340 734.500 C 689.366 724.908, 689 724.281, 689 725.358 M 933.455 785.500 C 933.455 806.950, 933.587 815.583, 933.749 804.684 C 933.911 793.785, 933.910 776.235, 933.748 765.684 C 933.587 755.133, 933.454 764.050, 933.455 785.500 M 706.836 756.250 C 708.448 758.587, 710.790 761.400, 712.040 762.500 C 713.290 763.600, 712.145 761.688, 709.496 758.250 C 703.972 751.083, 702.516 749.988, 706.836 756.250 M 716 767.391 C 719 770.762, 729.098 779.241, 727.106 776.716 C 726.340 775.744, 722.965 772.616, 719.606 769.765 C 716.248 766.914, 714.625 765.845, 716 767.391 M 837 821.564 C 840.025 822.303, 844.975 823.142, 848 823.429 C 851.752 823.784, 850.481 823.346, 844 822.048 C 833.110 819.867, 828.845 819.573, 837 821.564 M 878 827.972 C 880.475 828.447, 887.225 829.070, 893 829.356 C 902.483 829.825, 902.725 829.797, 895.500 829.068 C 879.112 827.414, 873.148 827.040, 878 827.972 M 932 829.458 C 932 830.580, 930.217 830.994, 924.250 831.257 L 916.500 831.598 924.750 831.799 C 932.400 831.985, 933 831.855, 933 830 C 933 828.900, 932.775 828, 932.500 828 C 932.225 828, 932 828.656, 932 829.458" stroke="none" fill="#040404" fill-rule="evenodd"/></svg>