<svg xmlns="http://www.w3.org/2000/svg" width="519" height="581" viewBox="0 0 519 581" version="1.1"><path d="" stroke="none" fill="#fccc04" fill-rule="evenodd"/><path d="M 186.160 1.750 C 185.660 2.712, 184.962 8, 184.611 13.500 C 184.259 19, 183.792 24.625, 183.572 26 C 182.936 29.984, 181.728 40.184, 181.440 44 C 181.142 47.954, 180.573 51.256, 178.340 62 C 177.482 66.125, 176.570 70.850, 176.311 72.500 C 175.693 76.452, 169.324 102.992, 167.313 110 C 166.445 113.025, 165.108 117.564, 164.342 120.086 C 163.575 122.608, 162.776 125.533, 162.564 126.586 C 162.353 127.639, 161.394 130.750, 160.433 133.500 C 159.473 136.250, 158.606 139.175, 158.508 140 C 158.409 140.825, 157.561 143.287, 156.623 145.471 C 155.685 147.654, 154.456 151.479, 153.893 153.971 C 153.329 156.462, 152.435 159.301, 151.906 160.281 C 151.377 161.260, 149.873 164.860, 148.563 168.281 C 147.253 171.701, 145.059 177.425, 143.686 181 C 138.368 194.856, 128.601 216.052, 121.577 228.982 C 117.539 236.417, 108.293 254.200, 101.030 268.500 C 93.768 282.800, 87.484 294.859, 87.066 295.297 C 85.869 296.552, 62.017 290.320, 45 284.305 C 5.127 270.211, 1.849 269.346, 0.607 272.582 C -0.482 275.419, -0.033 289.905, 1.539 302.656 C 3.394 317.705, 7.851 332.950, 15.899 351.763 C 25.208 373.527, 35.345 389.574, 49.585 405.084 L 54.711 410.669 55.926 420.584 C 56.594 426.038, 57.795 433.386, 58.594 436.913 C 60.024 443.224, 60.008 443.382, 57.579 446.913 C 56.222 448.886, 54.637 451.767, 54.056 453.315 C 51.755 459.451, 53.378 473.035, 57.325 480.664 C 58.226 482.404, 61.924 486.833, 65.543 490.507 C 70.737 495.778, 74.075 498.110, 81.375 501.568 C 87.873 504.646, 91.528 507.072, 93.663 509.725 C 95.334 511.801, 102.843 519.940, 110.351 527.812 C 117.858 535.684, 124 542.813, 124 543.654 C 124 545.937, 127.163 549.537, 133.471 554.435 L 139.110 558.814 133.883 561.657 C 131.008 563.221, 127.767 565.709, 126.680 567.186 C 124.947 569.543, 124.860 570.247, 125.970 572.927 C 128.102 578.075, 133.276 580.506, 142 580.462 C 150.621 580.418, 156.994 577.851, 161.917 572.441 C 165.172 568.864, 165.177 568.864, 179.500 572.602 C 185.423 574.148, 190.652 574.435, 213.500 574.465 C 238.125 574.497, 241.512 574.291, 252 572.121 C 273.274 567.721, 287.908 561.680, 317.500 545.082 C 323.550 541.688, 333.450 537.120, 339.500 534.931 C 363.527 526.235, 397.397 507.143, 417.234 491.113 C 427.497 482.820, 450.953 457.451, 459.629 445.260 C 472.861 426.668, 481.843 411.039, 490.258 391.965 C 502.716 363.727, 514.474 319.164, 516.740 291.597 C 517.548 281.770, 517.442 242.587, 516.580 232 C 514.703 208.971, 507.631 177.774, 503.307 173.449 C 501.422 171.565, 500.126 172.500, 495.699 178.942 C 493.977 181.449, 490.155 186.510, 487.206 190.188 C 484.258 193.866, 481.862 197.111, 481.883 197.398 C 481.904 197.686, 480.026 199.870, 477.711 202.251 C 475.395 204.633, 470.125 210.558, 466 215.419 C 461.875 220.279, 456.475 226.379, 454 228.974 C 451.525 231.568, 445.675 237.852, 441 242.938 C 436.325 248.023, 431.370 253.380, 429.989 254.842 C 426.582 258.448, 421.530 262.759, 422.307 261.397 C 422.920 260.322, 424.679 250.029, 425.450 243 C 425.661 241.075, 426.207 236.350, 426.662 232.500 C 428.289 218.750, 427.431 182.743, 425.077 166 C 423.879 157.475, 422.493 148.925, 421.997 147 C 421.501 145.075, 420.127 139.450, 418.943 134.500 C 416.843 125.725, 412.819 112.516, 411.021 108.500 C 410.529 107.400, 409.830 105.375, 409.468 104 C 408.847 101.635, 405.811 94.373, 400.272 82 C 396.569 73.729, 387.160 57.199, 382.690 51.112 C 377.863 44.539, 368.292 34.622, 365.316 33.110 C 362.534 31.696, 359.312 31.686, 358.446 33.088 C 357.747 34.219, 350.942 60.364, 350.660 63 C 350.572 63.825, 350.269 64.725, 349.987 65 C 349.259 65.710, 342.780 85.798, 342.627 87.821 C 342.557 88.744, 342.206 89.725, 341.846 90 C 341.065 90.598, 336.843 101.965, 336.739 103.750 C 336.699 104.438, 336.390 105, 336.052 105 C 335.353 105, 332.451 114.101, 332.783 115.250 C 332.902 115.662, 332.550 116, 332 116 C 331.450 116, 331 116.430, 331 116.956 C 331 117.872, 317.838 147.750, 314.241 155 C 313.286 156.925, 311.941 159.095, 311.252 159.821 C 310.564 160.548, 310 161.698, 310 162.376 C 310 163.054, 308.660 165.722, 307.022 168.304 C 305.384 170.887, 304.372 173.007, 304.772 173.015 C 305.172 173.024, 305.033 173.361, 304.463 173.765 C 303.893 174.169, 301.990 176.700, 300.235 179.389 C 296.634 184.905, 296.613 184.886, 294.580 174 C 293.810 169.875, 292.921 165.393, 292.607 164.040 C 292.292 162.687, 291.764 159.772, 291.435 157.561 C 291.105 155.351, 290.616 153.188, 290.348 152.755 C 290.081 152.321, 289.654 150.737, 289.401 149.234 C 287.944 140.595, 280.492 116.465, 275.894 105.500 C 275.433 104.400, 274.116 101.025, 272.968 98 C 270.214 90.746, 264.954 80.470, 258.634 70 C 253.507 61.506, 252.597 60.154, 250.250 57.537 C 249.563 56.770, 248.992 55.773, 248.982 55.321 C 248.962 54.416, 244.743 48.921, 241.295 45.309 C 240.083 44.039, 239.337 43, 239.639 43 C 240.657 43, 231.555 32.644, 222 22.930 C 211.374 12.127, 202.823 5.356, 195.761 2.151 C 190.014 -0.457, 187.366 -0.568, 186.160 1.750 M 259.799 400.453 C 252.469 403.499, 244 408.108, 244 409.052 C 244 409.456, 244.662 410.040, 245.471 410.350 C 247.997 411.320, 256.126 423.139, 260.018 431.500 C 265.039 442.288, 266.156 447.555, 266.078 460.087 C 265.949 480.743, 260.551 487.528, 250.264 479.963 C 246.165 476.948, 237.673 466.300, 234.704 460.450 C 231.207 453.562, 228.709 443.382, 228.114 433.598 L 227.500 423.500 222.864 430 C 212.924 443.938, 205.719 461.390, 193.967 500 C 186.978 522.962, 183.210 527.382, 169.835 528.304 C 163.430 528.746, 161.492 528.498, 158.049 526.794 C 154.236 524.908, 153.794 524.877, 152.135 526.378 C 149.584 528.687, 146.183 528.394, 140.050 525.338 C 134.457 522.551, 119.734 508.880, 118.643 505.461 C 118.289 504.354, 112.681 500.246, 105.759 496.025 C 99.016 491.914, 90.068 486.259, 85.873 483.460 L 78.246 478.369 81.337 483.435 C 94.652 505.255, 120.325 533.610, 131.624 538.977 C 138.724 542.349, 148.592 542.790, 157.500 540.132 C 171.887 535.840, 193.860 532.937, 226.500 531.016 C 271.362 528.375, 285.609 520.634, 296.472 493 C 303.034 476.308, 304.248 470.242, 304.381 453.500 C 304.472 441.968, 304.090 436.997, 302.729 432 C 300.502 423.825, 294.209 410.558, 290.448 406.107 C 283.761 398.192, 270.935 395.826, 259.799 400.453" stroke="none" fill="#fcd404" fill-rule="evenodd"/></svg>