<svg xmlns="http://www.w3.org/2000/svg" width="709" height="684" viewBox="0 0 709 684" version="1.1"><path d="" stroke="none" fill="#f4c424" fill-rule="evenodd"/><path d="M 173.180 18.682 C 168.755 20.862, 166.218 24.400, 159.686 37.500 C 146.654 63.634, 134.553 102.784, 130.013 133.500 C 124.399 171.478, 127.069 223.932, 136.468 260.356 C 141.565 280.108, 144.428 287.847, 153.617 306.712 C 158.228 316.178, 162 325.179, 162 326.713 C 162 328.247, 161.100 337.376, 160 347 C 158.900 356.624, 158 368.869, 158 374.213 L 158 383.929 153.750 382.123 C 134.425 373.912, 101.927 368.819, 83.506 371.115 C 73.463 372.367, 58.611 375.551, 51.745 377.924 C 43.988 380.605, 37 384.078, 37 385.252 C 37 387.258, 46.180 396.992, 55.283 404.638 C 63.405 411.461, 84.634 426.066, 94.144 431.373 L 97.500 433.246 87.028 435.614 C 73.435 438.690, 62.978 442.172, 49.989 447.948 C 38.679 452.978, 24.942 461.303, 20.961 465.542 C 18.521 468.139, 18.517 468.174, 20.500 469.662 C 33.300 479.270, 65.223 487.999, 93.272 489.562 L 106.044 490.273 96.203 500.388 C 90.790 505.951, 84.206 513.427, 81.572 517.002 C 77.076 523.100, 68 540.324, 68 542.756 C 68 545.055, 79.730 546.214, 104.419 546.356 C 118.214 546.435, 133.018 546.107, 137.317 545.626 L 145.133 544.753 141.388 550.607 C 136.991 557.481, 128.988 574.275, 126.562 581.717 C 125.626 584.587, 125.005 588.187, 125.180 589.717 C 125.478 592.307, 125.778 592.478, 129.500 592.184 C 149.355 590.618, 176.152 580.577, 211.500 561.459 L 216.500 558.754 229.500 564.784 C 253.294 575.820, 287.349 585.917, 307.526 587.917 C 321.836 589.337, 358.119 589.417, 369 588.054 C 373.675 587.468, 381.768 586.347, 386.985 585.563 C 392.202 584.779, 396.518 584.219, 396.577 584.319 C 396.635 584.418, 400.722 592.375, 405.659 602 C 417.771 625.613, 425.766 639.460, 430.136 644.394 L 433.773 648.500 437.989 644 C 444.141 637.433, 447.222 632.286, 452.032 620.536 L 456.322 610.058 474.411 628.409 C 484.360 638.502, 495.310 648.629, 498.744 650.913 L 504.989 655.067 507.002 651.783 C 510.449 646.163, 512.853 638.543, 514.082 629.346 C 515.346 619.885, 514.793 601.859, 513.061 596.066 C 512.496 594.178, 512.152 592.515, 512.295 592.371 C 512.439 592.228, 514.344 592.529, 516.528 593.040 C 524.957 595.014, 543.125 596.047, 551.324 595.019 C 555.762 594.462, 559.791 593.609, 560.278 593.122 C 561.805 591.595, 557.020 576.041, 551.474 564.500 C 548.566 558.450, 543.146 549.297, 539.430 544.160 C 534.067 536.747, 532.965 534.635, 534.087 533.925 C 534.864 533.433, 536.175 533.022, 537 533.012 C 540.138 532.972, 564.455 523.934, 570.831 520.437 C 580.599 515.081, 593.206 506.712, 597.915 502.458 C 602.802 498.043, 602.482 497.281, 593.915 492.957 C 569.886 480.827, 533.655 472, 507.898 472 C 497.949 472, 497.871 471.981, 498.577 469.750 C 498.968 468.512, 503.901 456.802, 509.539 443.727 L 519.790 419.953 524.645 417.391 C 542.563 407.936, 567.491 388.514, 588.030 368.006 C 609.857 346.212, 630.967 319.180, 650.108 288.512 C 673.081 251.705, 685.926 212.170, 686.341 177 C 686.488 164.519, 686.327 163.222, 684.211 159.818 C 681.760 155.877, 676.504 153.604, 663.500 150.864 C 653.858 148.832, 605.030 149.094, 586 151.281 C 530.824 157.621, 480.160 172.994, 449.698 192.640 L 442.896 197.027 435.832 193.926 C 423.091 188.334, 396.580 183, 381.526 183 L 374.916 183 372.031 176.569 C 367.900 167.361, 355.993 148, 348.004 137.500 C 338.218 124.639, 310.254 96.920, 296.446 86.394 C 263.870 61.562, 229.134 38.054, 213.310 30.131 C 204.141 25.540, 188.240 19.402, 182.201 18.123 C 175.904 16.789, 177.182 16.709, 173.180 18.682 M 288.985 273.579 C 274.423 275.515, 264.003 280.137, 249.248 291.204 C 234.186 302.501, 220.701 319.324, 210.532 339.500 C 204.497 351.474, 201.461 361.049, 196.941 382.369 C 192.523 403.203, 193.312 420.720, 199.217 432.941 C 201.672 438.021, 208.133 444.582, 213.838 447.789 L 217.741 449.982 218.257 433.741 C 218.695 419.995, 219.235 415.733, 221.775 406 C 229.851 375.047, 249.649 345.167, 263.927 342.380 C 266.828 341.814, 267.697 342.109, 269.587 344.306 C 275.558 351.248, 277.295 363.703, 274.988 383.026 C 271.932 408.631, 260.009 437.569, 246.680 451.735 C 245.006 453.514, 243.946 455.279, 244.323 455.657 C 245.315 456.648, 272.446 454.101, 279.332 452.369 C 291.244 449.374, 301.504 444.972, 308.080 440.035 C 313.963 435.618, 315.146 434.110, 319.242 425.798 C 324.505 415.117, 326.789 408.090, 330.989 389.662 C 337.882 359.416, 341.719 329.113, 340.506 314.500 C 339.676 304.486, 337.489 293.847, 335.453 289.909 C 331.389 282.051, 322.475 276.547, 310 274.194 C 300.184 272.342, 298.632 272.297, 288.985 273.579 M 436.500 322.386 C 421.175 326.489, 415.209 332.798, 401.873 359 C 395.092 372.323, 388.265 387.861, 386.495 394 C 385.913 396.017, 386.521 395.639, 389.637 392.048 C 401.033 378.913, 406.732 376.361, 412.021 382.022 C 417.768 388.175, 418.782 407.301, 414.398 426.880 C 409.946 446.767, 405.767 456.671, 394.847 473.213 L 387.776 483.926 391.492 488.989 C 396.968 496.449, 406.949 504.431, 416.804 509.230 C 424.222 512.843, 426.617 513.519, 433.102 513.832 C 439.778 514.154, 441.424 513.859, 446.602 511.417 C 454.129 507.868, 461.138 500.655, 467.431 489.982 C 477.911 472.209, 483.640 456.022, 488.181 431.350 C 489.965 421.656, 490.344 416.042, 490.263 400.500 C 490.113 371.504, 486.260 355.943, 474.972 338.749 C 469.521 330.445, 464.854 326.259, 458.101 323.618 C 452.168 321.297, 442.604 320.751, 436.500 322.386" stroke="none" fill="#ecc424" fill-rule="evenodd"/></svg>